<svg xmlns="http://www.w3.org/2000/svg" viewBox="0 0 600 170"><defs/><path fill="#FFE1B2" d="M24.806 36.563h175v121.874h-175z"/><path fill="#FFB980" d="M24.806 139.688h175v18.75h-175zM24.806 30.312h175v21.875h-175z"/><path fill="#7E5C62" d="M87.306 58.437h-43.75a3.125 3.125 0 00-3.125 3.125v93.75h50v-93.75c0-1.725-1.4-3.125-3.125-3.125z"/><path fill="#5C546A" d="M209.181 161.562H15.431c-1.727 0-3.125-1.397-3.125-3.125s1.398-3.125 3.125-3.125h193.75c1.727 0 3.125 1.398 3.125 3.125s-1.398 3.125-3.125 3.125zM81.056 117.812a3.123 3.123 0 01-3.125-3.125v-6.25c0-1.727 1.398-3.125 3.125-3.125s3.125 1.398 3.125 3.125v6.25a3.123 3.123 0 01-3.125 3.125z"/><path fill="#FF4F19" d="M27.931 45.937a9.375 9.375 0 01-9.375-9.375V14.687a6.25 6.25 0 016.25-6.25h12.5v28.125a9.375 9.375 0 01-9.375 9.375z"/><path fill="#E9001E" d="M46.681 45.937a9.375 9.375 0 01-9.375-9.375V8.437h18.75v28.125a9.375 9.375 0 01-9.375 9.375z"/><path fill="#FF4F19" d="M65.431 45.937a9.375 9.375 0 01-9.375-9.375V8.437h18.75v28.125a9.375 9.375 0 01-9.375 9.375z"/><path fill="#E9001E" d="M84.181 45.937a9.375 9.375 0 01-9.375-9.375V8.437h18.75v28.125a9.375 9.375 0 01-9.375 9.375z"/><path fill="#FF4F19" d="M102.931 45.937a9.375 9.375 0 01-9.375-9.375V8.437h18.75v28.125a9.375 9.375 0 01-9.375 9.375z"/><path fill="#E9001E" d="M121.681 45.937a9.375 9.375 0 01-9.375-9.375V8.437h18.75v28.125a9.375 9.375 0 01-9.375 9.375z"/><path fill="#FF4F19" d="M140.431 45.937a9.375 9.375 0 01-9.375-9.375V8.437h18.75v28.125a9.375 9.375 0 01-9.375 9.375z"/><path fill="#E9001E" d="M159.181 45.937a9.375 9.375 0 01-9.375-9.375V8.437h18.75v28.125a9.375 9.375 0 01-9.375 9.375z"/><path fill="#FF4F19" d="M177.931 45.937a9.375 9.375 0 01-9.375-9.375V8.437h18.75v28.125a9.375 9.375 0 01-9.375 9.375z"/><path fill="#E9001E" d="M196.681 45.937a9.375 9.375 0 01-9.375-9.375V8.437h12.5a6.25 6.25 0 016.25 6.25v21.875a9.375 9.375 0 01-9.375 9.375z"/><path fill="#53DCFF" d="M184.181 61.562h-78.125a3.125 3.125 0 00-3.125 3.125v62.5c0 1.726 1.4 3.125 3.125 3.125h78.125c1.726 0 3.125-1.399 3.125-3.125v-62.5c0-1.725-1.4-3.125-3.125-3.125z"/><path fill="#B3F4FF" d="M167.614 130.312h16.567c1.726 0 3.125-1.399 3.125-3.125v-3.699L125.38 61.562h-22.449c-1.107 0-2.034.61-2.589 1.479l67.272 67.271z"/><path fill="#FFF" d="M142.798 61.563l44.508 44.508V92.812l-31.25-31.25z"/><path fill="#7E5C62" d="M184.181 133.437h-78.125a6.258 6.258 0 01-6.25-6.25v-62.5a6.258 6.258 0 016.25-6.25h78.125a6.258 6.258 0 016.25 6.25v62.5a6.258 6.258 0 01-6.25 6.25zm-78.125-68.75v62.5h78.131l-.006-62.5h-78.125z"/><path fill="#53DCFF" d="M81.056 99.062h-31.25a3.125 3.125 0 01-3.125-3.125V67.812c0-1.725 1.4-3.125 3.125-3.125h31.25c1.726 0 3.125 1.4 3.125 3.125v28.125c0 1.726-1.4 3.125-3.125 3.125z"/><path fill="#B3F4FF" d="M65.47 64.687H49.806a3.125 3.125 0 00-3.125 3.125v4.604l26.647 26.646h7.728c1.726 0 3.125-1.399 3.125-3.125V83.4L65.47 64.687z"/><g stroke="#000" stroke-width="0" font-family="'Montserrat'"><text x="242.293" y="86.355" font-size="24" transform="matrix(4.18067 0 0 3.79566 -796.007 -228.95)">Lojinha</text><text x="272.916" y="167.021" font-size="10" transform="matrix(3.02669 0 0 2.74795 -473.734 -306.012)">compras online</text></g></svg>